<?xml version="1.0" encoding="utf-8"?>
<!-- Generator: Adobe Illustrator 24.3.0, SVG Export Plug-In . SVG Version: 6.00 Build 0)  -->
<svg version="1.1" xmlns="http://www.w3.org/2000/svg" xmlns:xlink="http://www.w3.org/1999/xlink" x="0px" y="0px"
	 viewBox="0 0 462.6 654.2" style="enable-background:new 0 0 462.6 654.2;" xml:space="preserve">
<style type="text/css">
	.st0{display:none;}
	
		.st1{display:inline;fill-rule:evenodd;clip-rule:evenodd;fill:#FFFFFF;stroke:#010101;stroke-width:5.5204;stroke-miterlimit:7.3606;}
	
		.st2{display:inline;fill-rule:evenodd;clip-rule:evenodd;fill:#010101;stroke:#010101;stroke-width:5.5204;stroke-miterlimit:7.3606;}
	.st3{fill-rule:evenodd;clip-rule:evenodd;fill:#FFFFFF;stroke:#010101;stroke-width:5.5204;stroke-miterlimit:7.3606;}
	.st4{fill-rule:evenodd;clip-rule:evenodd;fill:#010101;stroke:#010101;stroke-width:5.5204;stroke-miterlimit:7.3606;}
</style>
<g id="Layer_1" class="st0">
	<path class="st1" d="M185.3,179.1h92c50.8,0,92,41.2,92,92v92c0,50.8-41.2,92-92,92h-92c-50.8,0-92-41.2-92-92v-92
		C93.3,220.3,134.5,179.1,185.3,179.1z"/>
	<path class="st2" d="M253.4,316.2c0,12.7-10.3,23-23,23c-12.7,0-23-10.3-23-23c0-12.7,10.3-23,23-23
		C243.1,293.2,253.4,303.5,253.4,316.2z"/>
	<path class="st1" d="M575.8,250.9h92c50.8,0,92,41.2,92,92v92c0,50.8-41.2,92-92,92h-92c-50.8,0-92-41.2-92-92v-92
		C483.8,292.1,525,250.9,575.8,250.9z"/>
	<path class="st2" d="M577.6,321.8c0,12.7-10.3,23-23,23c-12.7,0-23-10.3-23-23c0-12.7,10.3-23,23-23
		C567.3,298.7,577.6,309,577.6,321.8z"/>
	<path class="st2" d="M710.1,454.3c0,12.7-10.3,23-23,23s-23-10.3-23-23c0-12.7,10.3-23,23-23S710.1,441.6,710.1,454.3z"/>
</g>
<g id="die2">
	<path class="st3" d="M555.6,274.7h92c50.8,0,92,41.2,92,92v92c0,50.8-41.2,92-92,92h-92c-50.8,0-92-41.2-92-92v-92
		C463.6,315.9,504.8,274.7,555.6,274.7z"/>
	<path class="st4" d="M557.5,345.6c0,12.7-10.3,23-23,23c-12.7,0-23-10.3-23-23c0-12.7,10.3-23,23-23
		C547.2,322.6,557.5,332.9,557.5,345.6z"/>
	<path class="st4" d="M690,478.1c0,12.7-10.3,23-23,23s-23-10.3-23-23c0-12.7,10.3-23,23-23S690,465.4,690,478.1z"/>
</g>
</svg>
