<?xml version="1.0" encoding="utf-8"?>
<!-- Generator: Adobe Illustrator 24.3.0, SVG Export Plug-In . SVG Version: 6.00 Build 0)  -->
<svg version="1.1" xmlns="http://www.w3.org/2000/svg" xmlns:xlink="http://www.w3.org/1999/xlink" x="0px" y="0px"
	 viewBox="0 0 462.6 654.2" style="enable-background:new 0 0 462.6 654.2;" xml:space="preserve">
<style type="text/css">
	.st0{display:none;}
	
		.st1{display:inline;fill-rule:evenodd;clip-rule:evenodd;fill:#FFFFFF;stroke:#010101;stroke-width:5.5204;stroke-miterlimit:7.3606;}
	
		.st2{display:inline;fill-rule:evenodd;clip-rule:evenodd;fill:#010101;stroke:#010101;stroke-width:5.5204;stroke-miterlimit:7.3606;}
	.st3{fill-rule:evenodd;clip-rule:evenodd;fill:#FFFFFF;stroke:#010101;stroke-width:5.5204;stroke-miterlimit:7.3606;}
	.st4{fill-rule:evenodd;clip-rule:evenodd;fill:#010101;stroke:#010101;stroke-width:5.5204;stroke-miterlimit:7.3606;}
</style>
<g id="Layer_1" class="st0">
	<path class="st1" d="M185.3,179.1h92c50.8,0,92,41.2,92,92v92c0,50.8-41.2,92-92,92h-92c-50.8,0-92-41.2-92-92v-92
		C93.3,220.3,134.5,179.1,185.3,179.1z"/>
	<path class="st2" d="M253.4,316.2c0,12.7-10.3,23-23,23c-12.7,0-23-10.3-23-23c0-12.7,10.3-23,23-23
		C243.1,293.2,253.4,303.5,253.4,316.2z"/>
	<path class="st1" d="M575.8,250.9h92c50.8,0,92,41.2,92,92v92c0,50.8-41.2,92-92,92h-92c-50.8,0-92-41.2-92-92v-92
		C483.8,292.1,525,250.9,575.8,250.9z"/>
	<path class="st2" d="M577.6,321.8c0,12.7-10.3,23-23,23c-12.7,0-23-10.3-23-23c0-12.7,10.3-23,23-23
		C567.3,298.7,577.6,309,577.6,321.8z"/>
	<path class="st2" d="M710.1,454.3c0,12.7-10.3,23-23,23s-23-10.3-23-23c0-12.7,10.3-23,23-23S710.1,441.6,710.1,454.3z"/>
</g>
<g id="die2" class="st0">
	<path class="st1" d="M97,358.2h92c50.8,0,92,41.2,92,92v92c0,50.8-41.2,92-92,92H97c-50.8,0-92-41.2-92-92v-92
		C5,399.4,46.2,358.2,97,358.2z"/>
	<path class="st2" d="M98.9,429.1c0,12.7-10.3,23-23,23c-12.7,0-23-10.3-23-23c0-12.7,10.3-23,23-23
		C88.6,406.1,98.9,416.4,98.9,429.1z"/>
	<path class="st2" d="M231.4,561.6c0,12.7-10.3,23-23,23c-12.7,0-23-10.3-23-23c0-12.7,10.3-23,23-23
		C221.1,538.6,231.4,548.9,231.4,561.6z"/>
</g>
<g id="die3" class="st0">
	<path class="st1" d="M92,6h92c50.8,0,92,41.2,92,92v92c0,50.8-41.2,92-92,92H92c-50.8,0-92-41.2-92-92V98C0,47.2,41.2,6,92,6z"/>
	<path class="st2" d="M93.8,76.9c0,12.7-10.3,23-23,23c-12.7,0-23-10.3-23-23c0-12.7,10.3-23,23-23C83.6,53.9,93.8,64.2,93.8,76.9z"
		/>
	<path class="st2" d="M226.3,209.4c0,12.7-10.3,23-23,23c-12.7,0-23-10.3-23-23c0-12.7,10.3-23,23-23
		C216,186.4,226.3,196.7,226.3,209.4z"/>
	<path class="st2" d="M160.1,143.1c0,12.7-10.3,23-23,23c-12.7,0-23-10.3-23-23c0-12.7,10.3-23,23-23
		C149.8,120.1,160.1,130.4,160.1,143.1z"/>
</g>
<g id="die4" class="st0">
	<path class="st1" d="M214.4,28h92c50.8,0,92,41.2,92,92v92c0,50.8-41.2,92-92,92h-92c-50.8,0-92-41.2-92-92v-92
		C122.4,69.2,163.6,28,214.4,28z"/>
	<path class="st2" d="M216.3,98.9c0,12.7-10.3,23-23,23c-12.7,0-23-10.3-23-23c0-12.7,10.3-23,23-23C206,75.9,216.3,86.2,216.3,98.9
		z"/>
	<path class="st2" d="M216.3,231.4c0,12.7-10.3,23-23,23c-12.7,0-23-10.3-23-23c0-12.7,10.3-23,23-23
		C206,208.4,216.3,218.7,216.3,231.4z"/>
	<path class="st2" d="M348.8,98.9c0,12.7-10.3,23-23,23c-12.7,0-23-10.3-23-23c0-12.7,10.3-23,23-23
		C338.5,75.9,348.8,86.2,348.8,98.9z"/>
	<path class="st2" d="M348.8,231.4c0,12.7-10.3,23-23,23c-12.7,0-23-10.3-23-23c0-12.7,10.3-23,23-23
		C338.5,208.4,348.8,218.7,348.8,231.4z"/>
</g>
<g id="die5" class="st0">
	<path class="st1" d="M278.6,35.4h92c50.8,0,92,41.2,92,92v92c0,50.8-41.2,92-92,92h-92c-50.8,0-92-41.2-92-92v-92
		C186.6,76.6,227.8,35.4,278.6,35.4z"/>
	<path class="st2" d="M280.4,106.2c0,12.7-10.3,23-23,23c-12.7,0-23-10.3-23-23c0-12.7,10.3-23,23-23
		C270.1,83.2,280.4,93.5,280.4,106.2z"/>
	<path class="st2" d="M280.4,238.7c0,12.7-10.3,23-23,23c-12.7,0-23-10.3-23-23c0-12.7,10.3-23,23-23
		C270.1,215.7,280.4,226,280.4,238.7z"/>
	<path class="st2" d="M412.9,106.2c0,12.7-10.3,23-23,23c-12.7,0-23-10.3-23-23c0-12.7,10.3-23,23-23
		C402.6,83.2,412.9,93.5,412.9,106.2z"/>
	<path class="st2" d="M412.9,238.7c0,12.7-10.3,23-23,23c-12.7,0-23-10.3-23-23c0-12.7,10.3-23,23-23
		C402.6,215.7,412.9,226,412.9,238.7z"/>
	<path class="st2" d="M346.7,172.5c0,12.7-10.3,23-23,23c-12.7,0-23-10.3-23-23c0-12.7,10.3-23,23-23
		C336.4,149.5,346.7,159.8,346.7,172.5z"/>
</g>
<g id="Layer_6">
	<path class="st3" d="M555.6,274.7h92c50.8,0,92,41.2,92,92v92c0,50.8-41.2,92-92,92h-92c-50.8,0-92-41.2-92-92v-92
		C463.6,315.9,504.8,274.7,555.6,274.7z"/>
	<path class="st4" d="M557.5,345.6c0,12.7-10.3,23-23,23c-12.7,0-23-10.3-23-23c0-12.7,10.3-23,23-23
		C547.2,322.6,557.5,332.9,557.5,345.6z"/>
	<path class="st4" d="M557.5,478.1c0,12.7-10.3,23-23,23c-12.7,0-23-10.3-23-23c0-12.7,10.3-23,23-23
		C547.2,455.1,557.5,465.4,557.5,478.1z"/>
	<path class="st4" d="M557.5,411.9c0,12.7-10.3,23-23,23c-12.7,0-23-10.3-23-23c0-12.7,10.3-23,23-23
		C547.2,388.8,557.5,399.2,557.5,411.9z"/>
	<path class="st4" d="M690,345.6c0,12.7-10.3,23-23,23c-12.7,0-23-10.3-23-23c0-12.7,10.3-23,23-23C679.7,322.6,690,332.9,690,345.6
		z"/>
	<path class="st4" d="M690,478.1c0,12.7-10.3,23-23,23c-12.7,0-23-10.3-23-23c0-12.7,10.3-23,23-23C679.7,455.1,690,465.4,690,478.1
		z"/>
	<path class="st4" d="M690,411.9c0,12.7-10.3,23-23,23c-12.7,0-23-10.3-23-23c0-12.7,10.3-23,23-23C679.7,388.8,690,399.2,690,411.9
		z"/>
</g>
</svg>
